<?xml version="1.0" encoding="UTF-8" standalone="no"?>
<!-- Created with Inkscape (http://www.inkscape.org/) -->

<svg
   width="238.125mm"
   height="231.15411mm"
   viewBox="0 0 238.12501 231.15411"
   version="1.1"
   id="svg1"
   xml:space="preserve"
   xmlns="http://www.w3.org/2000/svg"
   xmlns:svg="http://www.w3.org/2000/svg"><defs
     id="defs1"><filter
       style="color-interpolation-filters:sRGB"
       id="filter2"
       x="-0.017108959"
       y="-0.017454495"
       width="1.0342179"
       height="1.034909"><feGaussianBlur
         stdDeviation="0.76181134"
         id="feGaussianBlur2" /></filter><filter
       style="color-interpolation-filters:sRGB"
       id="filter8"
       x="-0.026732748"
       y="-0.027272648"
       width="1.0534655"
       height="1.0545453"><feGaussianBlur
         stdDeviation="1.1903302"
         id="feGaussianBlur8" /></filter><filter
       style="color-interpolation-filters:sRGB"
       id="filter1"
       x="-0.023287196"
       y="-0.02375751"
       width="1.0465744"
       height="1.047515"><feGaussianBlur
         stdDeviation="1.0369099"
         id="feGaussianBlur1" /></filter><filter
       style="color-interpolation-filters:sRGB"
       id="filter16"
       x="-0.026732748"
       y="-0.027272649"
       width="1.0534655"
       height="1.0545453"><feGaussianBlur
         stdDeviation="1.1903302"
         id="feGaussianBlur16" /></filter></defs><g
     id="layer1"
     transform="translate(490.48357,-79.47297)"><g
       id="g7"
       transform="matrix(2.1420301,0,0,2.1420301,-57.658421,-105.98882)"><path
         style="fill:#24bef6;fill-opacity:1;filter:url(#filter1)"
         d="m -54.454265,195.03264 c -0.29104,-0.12118 -0.85027,-0.56012 -1.24273,-0.97542 -2.79588,-2.95858 -1.581,-9.08992 2.24144,-11.31229 0.83077,-0.48301 3.87066,-1.23638 11.83359,-2.9327 11.42765,-2.43441 11.93019,-2.60176 13.33211,-4.43978 2.831286,-3.71201 2.485206,-8.83928 -0.7289,-10.79915 -0.45609,-0.27811 -1.3055,-0.50704 -1.88759,-0.50874 -0.58208,-0.002 -10.89924,2.10375 -22.92702,4.67877 -24.359613,5.21512 -23.008373,5.04098 -24.810823,3.19739 -2.16831,-2.2178 -1.98717,-6.51822 0.40677,-9.65684 1.49939,-1.9658 1.06883,-1.84513 24.319303,-6.81559 11.92887,-2.55014 22.19034,-4.82225 22.80328,-5.04912 0.69187,-0.2561 1.61138,-0.95626 2.42511,-1.84662 2.778346,-3.03996 3.124216,-7.74493 0.75409,-10.25801 -0.8851,-0.93847 -2.51764,-1.57856 -3.48375,-1.36591 -11.26018,2.47849 -18.45216,3.8692 -19.49534,3.76981 -4.08223,-0.38893 -5.48294,-5.83118 -2.64878,-10.29134 1.4553,-2.29022 2.47022,-2.74936 9.37226,-4.23992 4.15221,-0.89671 6.50244,-1.53486 7.25667,-1.9704 2.02131,-1.16723 3.52634,-3.7808 3.71609,-6.4532 0.22582,-3.18061 -0.90524,-5.33855 -3.27191,-6.24239 l -1.19376,-0.4559 -14.60903,3.12524 c -15.94815,3.41172 -15.85416,3.40119 -17.49539,1.96017 -1.31182,-1.15179 -1.82923,-2.71571 -1.67581,-5.06527 0.18062,-2.76605 1.57474,-5.1875 3.76656,-6.54212 0.59084,-0.36516 5.4568,-1.52506 14.9966,-3.57475 7.76708,-1.668821 17.27712,-3.756811 21.13342,-4.639983 17.672678,-4.047447 28.3105771,-5.840157 34.6604071,-5.840997 10.4071409,-10e-4 17.5949309,3.732444 21.1835209,11.00413 4.06406,8.23515 2.92519,21.95338 -2.62835,31.6597 -3.07963,5.38249 -8.76526,11.28649 -14.7732109,15.34062 -4.7460701,3.20261 -11.2076,5.76892 -18.7309191,7.43932 l -3.96874,0.88117 -0.0682,15.47512 -0.0682,15.47511 -4.82656,1.02713 c -2.654602,0.56492 -6.374362,1.35196 -8.266128,1.74897 -1.89177,0.39702 -7.67746,1.62765 -12.85707,2.73475 -8.98274,1.91998 -11.35676,2.25291 -12.54294,1.75904 z m 44.395058,-57.16401 c 5.5516891,-1.22344 10.10380904,-2.5868 12.7549391,-3.82012 6.43399,-2.99315 9.8749409,-8.47875 9.9651509,-15.88659 0.0414,-3.40159 -0.46619,-5.21426 -1.982021,-7.07776 -2.0787399,-2.55551 -6.1236599,-3.92236 -10.36437996,-3.5023 -1.78235994,0.17655 -10.13567924,1.73347 -13.68446904,2.55056 l -2.32281,0.53482 v 14.1315 c 0,12.55753 0.0455,14.13151 0.40808,14.13151 0.22444,0 2.57593,-0.47773 5.22551,-1.06162 z"
         id="path1" /><path
         style="fill:#08759e;fill-opacity:1"
         d="m -55.442425,194.29152 c -0.29104,-0.12118 -0.85027,-0.56012 -1.24273,-0.97542 -2.79588,-2.95858 -1.581,-9.08992 2.24144,-11.31229 0.83077,-0.48301 3.87066,-1.23638 11.83359,-2.9327 11.42765,-2.43441 11.93019,-2.60176 13.33211,-4.43978 2.831286,-3.71201 2.485206,-8.83928 -0.7289,-10.79915 -0.45609,-0.27811 -1.3055,-0.50704 -1.88759,-0.50874 -0.58208,-0.002 -10.89924,2.10375 -22.92702,4.67877 -24.359613,5.21512 -23.008373,5.04098 -24.810823,3.19739 -2.16831,-2.2178 -1.98717,-6.51822 0.40677,-9.65684 1.49939,-1.9658 1.06883,-1.84513 24.319303,-6.81559 11.92887,-2.55014 22.19034,-4.82225 22.80328,-5.04912 0.69187,-0.2561 1.61138,-0.95626 2.42511,-1.84662 2.778346,-3.03996 3.124216,-7.74493 0.75409,-10.25801 -0.8851,-0.93847 -2.51764,-1.57856 -3.48375,-1.36591 -11.26018,2.47849 -18.45216,3.8692 -19.49534,3.76981 -4.08223,-0.38893 -5.48294,-5.83118 -2.64878,-10.29134 1.4553,-2.29022 2.47022,-2.74936 9.37226,-4.23992 4.15221,-0.89671 6.50244,-1.53486 7.25667,-1.9704 2.02131,-1.16723 3.52634,-3.7808 3.71609,-6.4532 0.22582,-3.18061 -0.90524,-5.33855 -3.27191,-6.24239 l -1.19376,-0.4559 -14.60903,3.12524 c -15.94815,3.41172 -15.85416,3.40119 -17.49539,1.96017 -1.31182,-1.15179 -1.82923,-2.71571 -1.67581,-5.06527 0.18062,-2.76605 1.57474,-5.1875 3.76656,-6.54212 0.59084,-0.36516 5.4568,-1.52506 14.9966,-3.57475 7.76708,-1.668821 17.27712,-3.756811 21.13342,-4.639983 17.672678,-4.047447 28.3105779,-5.840157 34.6604079,-5.840997 10.4071401,-0.001 17.5949301,3.732444 21.1835201,11.00413 4.06406,8.23515 2.92519,21.95338 -2.62835,31.6597 -3.07963,5.38249 -8.76526,11.28649 -14.7732101,15.34062 -4.7460701,3.20261 -11.2076,5.76892 -18.7309199,7.43932 l -3.96874,0.88117 -0.0682,15.47512 -0.0682,15.47511 -4.82656,1.02713 c -2.654602,0.56492 -6.374362,1.35196 -8.266128,1.74897 -1.89177,0.39702 -7.67746,1.62765 -12.85707,2.73475 -8.98274,1.91998 -11.35676,2.25291 -12.54294,1.75904 z m 44.395058,-57.16401 c 5.5516899,-1.22344 10.10380988,-2.5868 12.7549399,-3.82012 6.43399,-2.99315 9.8749401,-8.47875 9.9651501,-15.88659 0.0414,-3.40159 -0.46619,-5.21426 -1.9820201,-7.07776 -2.07874,-2.55551 -6.12366,-3.92236 -10.36438002,-3.5023 -1.78235998,0.17655 -10.13567988,1.73347 -13.68446988,2.55056 l -2.32281,0.53482 v 14.1315 c 0,12.55753 0.0455,14.13151 0.40808,14.13151 0.22444,0 2.57593,-0.47773 5.22551,-1.06162 z"
         id="path3" /><path
         style="fill:#9bcde0;fill-opacity:1"
         d="m -59.745435,191.12731 c -0.29104,-0.12118 -0.85027,-0.56012 -1.24273,-0.97542 -2.79588,-2.95858 -1.581,-9.08992 2.24144,-11.31229 0.83077,-0.48301 3.87066,-1.23638 11.83359,-2.9327 11.42765,-2.43441 11.93019,-2.60176 13.33211,-4.43978 2.83129,-3.71201 2.48521,-8.83928 -0.7289,-10.79915 -0.45609,-0.27811 -1.3055,-0.50704 -1.88759,-0.50874 -0.58208,-0.002 -10.89924,2.10375 -22.92702,4.67877 -24.359608,5.21512 -23.008368,5.04098 -24.810818,3.19739 -2.16831,-2.2178 -1.98717,-6.51822 0.40677,-9.65684 1.49939,-1.9658 1.06883,-1.84513 24.319298,-6.81559 11.92887,-2.55014 22.19034,-4.82225 22.80328,-5.04912 0.69187,-0.2561 1.61138,-0.95626 2.42511,-1.84662 2.77835,-3.03996 3.12422,-7.74493 0.75409,-10.25801 -0.8851,-0.93847 -2.51764,-1.57856 -3.48375,-1.36591 -11.26018,2.47849 -18.45216,3.8692 -19.49534,3.76981 -4.08223,-0.38893 -5.48294,-5.83118 -2.64878,-10.29134 1.4553,-2.29022 2.47022,-2.74936 9.37226,-4.23992 4.15221,-0.89671 6.50244,-1.53486 7.25667,-1.9704 2.02131,-1.16723 3.52634,-3.7808 3.71609,-6.4532 0.22582,-3.18061 -0.90524,-5.33855 -3.27191,-6.24239 l -1.19376,-0.4559 -14.60903,3.12524 c -15.94815,3.41172 -15.85416,3.40119 -17.495388,1.96017 -1.31182,-1.15179 -1.82923,-2.71571 -1.67581,-5.06527 0.18062,-2.76605 1.57474,-5.18749 3.766558,-6.54211 0.59084,-0.36516 5.4568,-1.525071 14.9966,-3.574761 7.76708,-1.668822 17.27712,-3.756817 21.13342,-4.639987 17.672668,-4.04744 28.3105779,-5.84015 34.6604079,-5.84099 10.40714,-10e-4 17.5949301,3.73244 21.1835201,11.004127 4.06406,8.235151 2.92519,21.953381 -2.62835,31.659701 -3.07963,5.38249 -8.7652601,11.28649 -14.7732102,15.34062 -4.7460699,3.20261 -11.2075997,5.76892 -18.7309298,7.43932 l -3.96874,0.88117 -0.0682,15.47512 -0.0682,15.47511 -4.826562,1.02713 c -2.654586,0.56492 -6.374346,1.35196 -8.266116,1.74897 -1.89177,0.39702 -7.67746,1.62765 -12.85707,2.73475 -8.98274,1.91998 -11.35676,2.25291 -12.54294,1.75904 z m 44.395048,-57.16401 c 5.5517001,-1.22344 10.1038199,-2.5868 12.7549499,-3.82012 6.43399,-2.99315 9.87494,-8.47875 9.96515,-15.88659 0.0414,-3.40159 -0.46619,-5.21426 -1.98202,-7.07776 -2.07874,-2.55551 -6.12366002,-3.92236 -10.36438,-3.5023 -1.78236,0.17655 -10.1356899,1.73347 -13.6844799,2.55056 l -2.32281,0.53482 v 14.1315 c 0,12.55753 0.0455,14.13151 0.40808,14.13151 0.22444,0 2.57593,-0.47773 5.22551,-1.06162 z"
         id="path4" /><path
         style="mix-blend-mode:normal;fill:#076c90;fill-opacity:1;filter:url(#filter2)"
         d="m 70.454572,193.93622 c -0.29104,-0.12118 -0.85027,-0.56012 -1.24273,-0.97542 -2.79588,-2.95858 -1.581,-9.08992 2.24144,-11.31229 0.83077,-0.48301 3.87066,-1.23638 11.83359,-2.9327 11.42765,-2.43441 11.93019,-2.60176 13.33211,-4.43978 2.831286,-3.71201 2.485206,-8.83928 -0.7289,-10.79915 -0.45609,-0.27811 -1.3055,-0.50704 -1.88759,-0.50874 -0.58208,-0.002 -10.89924,2.10375 -22.92702,4.67877 -24.359613,5.21512 -23.008373,5.04098 -24.810823,3.19739 -2.16831,-2.2178 -1.98717,-6.51822 0.40677,-9.65684 1.49939,-1.9658 1.06883,-1.84513 24.319303,-6.81559 11.92887,-2.55014 22.19034,-4.82225 22.80328,-5.04912 0.69187,-0.2561 1.61138,-0.95626 2.42511,-1.84662 2.778346,-3.03996 3.124216,-7.74493 0.75409,-10.25801 -0.8851,-0.93847 -2.51764,-1.57856 -3.48375,-1.36591 -11.26018,2.47849 -18.45216,3.8692 -19.49534,3.76981 -4.08223,-0.38893 -5.48294,-5.83118 -2.64878,-10.29134 1.4553,-2.29022 2.47022,-2.74936 9.37226,-4.23992 4.15221,-0.89671 6.50244,-1.53486 7.25667,-1.9704 2.02131,-1.16723 3.52634,-3.7808 3.71609,-6.4532 0.22582,-3.18061 -0.90524,-5.33855 -3.27191,-6.24239 l -1.19376,-0.4559 -14.60903,3.12524 c -15.94815,3.41172 -15.85416,3.40119 -17.49539,1.96017 -1.31182,-1.15179 -1.82923,-2.71571 -1.67581,-5.06527 0.18062,-2.76605 1.57474,-5.1875 3.76656,-6.54212 0.59084,-0.36516 5.4568,-1.52507 14.9966,-3.57476 7.76708,-1.668817 17.27712,-3.756807 21.13342,-4.639977 17.672678,-4.047447 28.310578,-5.840157 34.660408,-5.840997 10.40714,-10e-4 17.59493,3.732444 21.18352,11.004124 4.06406,8.23516 2.92519,21.95339 -2.62835,31.65971 -3.07963,5.38249 -8.76526,11.28649 -14.77321,15.34062 -4.74607,3.20261 -11.2076,5.76892 -18.73092,7.43932 l -3.96874,0.88117 -0.0682,15.47512 -0.0682,15.47511 -4.82656,1.02713 c -2.6546,0.56492 -6.374362,1.35196 -8.266128,1.74897 -1.89177,0.39702 -7.67746,1.62765 -12.85707,2.73475 -8.98274,1.91998 -11.35676,2.25291 -12.54294,1.75904 z m 44.395058,-57.16401 c 5.55169,-1.22344 10.10381,-2.5868 12.75494,-3.82012 6.43399,-2.99315 9.87494,-8.47875 9.96515,-15.88659 0.0414,-3.40159 -0.46619,-5.21426 -1.98202,-7.07776 -2.07874,-2.55551 -6.12366,-3.92236 -10.36438,-3.5023 -1.78236,0.17655 -10.13568,1.73347 -13.68447,2.55056 l -2.32281,0.53482 v 14.1315 c 0,12.55753 0.0455,14.13151 0.40808,14.13151 0.22444,0 2.57593,-0.47773 5.22551,-1.06162 z"
         id="path6" /><path
         style="mix-blend-mode:normal;fill:#70d4f9;fill-opacity:1;filter:url(#filter2)"
         d="m 69.466412,192.45398 c -0.29104,-0.12118 -0.85027,-0.56012 -1.24273,-0.97542 -2.79588,-2.95858 -1.581,-9.08992 2.24144,-11.31229 0.83077,-0.48301 3.87066,-1.23638 11.83359,-2.9327 11.42765,-2.43441 11.93019,-2.60176 13.33211,-4.43978 2.831286,-3.71201 2.485206,-8.83928 -0.7289,-10.79915 -0.45609,-0.27811 -1.3055,-0.50704 -1.88759,-0.50874 -0.58208,-0.002 -10.89924,2.10375 -22.92702,4.67877 -24.359613,5.21512 -23.008373,5.04098 -24.810823,3.19739 -2.16831,-2.2178 -1.98717,-6.51822 0.40677,-9.65684 1.49939,-1.9658 1.06883,-1.84513 24.319303,-6.81559 11.92887,-2.55014 22.19034,-4.82225 22.80328,-5.04912 0.69187,-0.2561 1.61138,-0.95626 2.42511,-1.84662 2.778346,-3.03996 3.124216,-7.74493 0.75409,-10.25801 -0.8851,-0.93847 -2.51764,-1.57856 -3.48375,-1.36591 -11.26018,2.47849 -18.45216,3.8692 -19.49534,3.76981 -4.08223,-0.38893 -5.48294,-5.83118 -2.64878,-10.29134 1.4553,-2.29022 2.47022,-2.74936 9.37226,-4.23992 4.15221,-0.89671 6.50244,-1.53486 7.25667,-1.9704 2.02131,-1.16723 3.52634,-3.7808 3.71609,-6.4532 0.22582,-3.18061 -0.90524,-5.33855 -3.27191,-6.24239 l -1.19376,-0.4559 -14.60903,3.12524 c -15.94815,3.41172 -15.85416,3.40119 -17.49539,1.96017 -1.31182,-1.15179 -1.82923,-2.71571 -1.67581,-5.06527 0.18062,-2.76605 1.57474,-5.1875 3.76656,-6.54212 0.59084,-0.36516 5.4568,-1.52507 14.9966,-3.574757 7.76708,-1.66882 17.27712,-3.75681 21.13342,-4.63998 17.672678,-4.047447 28.310578,-5.840157 34.660408,-5.840997 10.40714,-0.001 17.59493,3.732444 21.18352,11.004127 4.06406,8.235157 2.92519,21.953387 -2.62835,31.659707 -3.07963,5.38249 -8.76526,11.28649 -14.77321,15.34062 -4.74607,3.20261 -11.2076,5.76892 -18.73092,7.43932 l -3.96874,0.88117 -0.0682,15.47512 -0.0682,15.47511 -4.82656,1.02713 c -2.6546,0.56492 -6.374362,1.35196 -8.266128,1.74897 -1.89177,0.39702 -7.67746,1.62765 -12.85707,2.73475 -8.98274,1.91998 -11.35676,2.25291 -12.54294,1.75904 z m 44.395058,-57.16401 c 5.55169,-1.22344 10.10381,-2.5868 12.75494,-3.82012 6.43399,-2.99315 9.87494,-8.47875 9.96515,-15.88659 0.0414,-3.40159 -0.46619,-5.21426 -1.98202,-7.07776 -2.07874,-2.55551 -6.12366,-3.92236 -10.36438,-3.5023 -1.78236,0.17655 -10.13568,1.73347 -13.68447,2.55056 l -2.32281,0.53482 v 14.1315 c 0,12.55753 0.0455,14.13151 0.40808,14.13151 0.22444,0 2.57593,-0.47773 5.22551,-1.06162 z"
         id="path2" /><path
         style="fill:#08759e;fill-opacity:1"
         d="m 68.972332,191.9599 c -0.29104,-0.12118 -0.85027,-0.56012 -1.24273,-0.97542 -2.79588,-2.95858 -1.581,-9.08992 2.24144,-11.31229 0.83077,-0.48301 3.87066,-1.23638 11.83359,-2.9327 11.42765,-2.43441 11.93019,-2.60176 13.33211,-4.43978 2.831286,-3.71201 2.485206,-8.83928 -0.7289,-10.79915 -0.45609,-0.27811 -1.3055,-0.50704 -1.88759,-0.50874 -0.58208,-0.002 -10.89924,2.10375 -22.92702,4.67877 -24.359613,5.21512 -23.008373,5.04098 -24.810823,3.19739 -2.16831,-2.2178 -1.98717,-6.51822 0.40677,-9.65684 1.49939,-1.9658 1.06883,-1.84513 24.319303,-6.81559 11.92887,-2.55014 22.19034,-4.82225 22.80328,-5.04912 0.69187,-0.2561 1.61138,-0.95626 2.42511,-1.84662 2.778346,-3.03996 3.124216,-7.74493 0.75409,-10.25801 -0.8851,-0.93847 -2.51764,-1.57856 -3.48375,-1.36591 -11.26018,2.47849 -18.45216,3.8692 -19.49534,3.76981 -4.08223,-0.38893 -5.48294,-5.83118 -2.64878,-10.29134 1.4553,-2.29022 2.47022,-2.74936 9.37226,-4.23992 4.15221,-0.89671 6.50244,-1.53486 7.25667,-1.9704 2.02131,-1.16723 3.52634,-3.7808 3.71609,-6.4532 0.22582,-3.18061 -0.90524,-5.33855 -3.27191,-6.24239 l -1.19376,-0.4559 -14.60903,3.12524 c -15.94815,3.41172 -15.85416,3.40119 -17.49539,1.96017 -1.31182,-1.15179 -1.82923,-2.71571 -1.67581,-5.06527 0.18062,-2.76605 1.57474,-5.1875 3.76656,-6.54212 0.59084,-0.36516 5.4568,-1.525067 14.9966,-3.574757 7.76708,-1.66882 17.27712,-3.75681 21.13342,-4.63998 17.672678,-4.047447 28.310578,-5.840157 34.660408,-5.840997 10.40714,-10e-4 17.59493,3.732444 21.18352,11.004127 4.06406,8.235157 2.92519,21.953387 -2.62835,31.659707 -3.07963,5.38249 -8.76526,11.28649 -14.77321,15.34062 -4.74607,3.20261 -11.2076,5.76892 -18.73092,7.43932 l -3.96874,0.88117 -0.0682,15.47512 -0.0682,15.47511 -4.82656,1.02713 c -2.654602,0.56492 -6.374362,1.35196 -8.266128,1.74897 -1.89177,0.39702 -7.67746,1.62765 -12.85707,2.73475 -8.98274,1.91998 -11.35676,2.25291 -12.54294,1.75904 z m 44.395058,-57.16401 c 5.55169,-1.22344 10.10381,-2.5868 12.75494,-3.82012 6.43399,-2.99315 9.87494,-8.47875 9.96515,-15.88659 0.0414,-3.40159 -0.46619,-5.21426 -1.98202,-7.07776 -2.07874,-2.55551 -6.12366,-3.92236 -10.36438,-3.5023 -1.78236,0.17655 -10.13568,1.73347 -13.68447,2.55056 l -2.32281,0.53482 v 14.1315 c 0,12.55753 0.0455,14.13151 0.40808,14.13151 0.22444,0 2.57593,-0.47773 5.22551,-1.06162 z"
         id="path5" /><path
         style="fill:#24bef6;fill-opacity:1;filter:url(#filter8)"
         d="m 64.669322,188.79569 c -0.29104,-0.12118 -0.85027,-0.56012 -1.24273,-0.97542 -2.79588,-2.95858 -1.581,-9.08992 2.24144,-11.31229 0.83077,-0.48301 3.87066,-1.23638 11.83359,-2.9327 11.42765,-2.43441 11.93019,-2.60176 13.33211,-4.43978 2.83129,-3.71201 2.48521,-8.83928 -0.7289,-10.79915 -0.45609,-0.27811 -1.3055,-0.50704 -1.88759,-0.50874 -0.58208,-0.002 -10.89924,2.10375 -22.92702,4.67877 -24.359608,5.21512 -23.008368,5.04098 -24.810818,3.19739 -2.16831,-2.2178 -1.98717,-6.51822 0.40677,-9.65684 1.49939,-1.9658 1.06883,-1.84513 24.319298,-6.81559 11.92887,-2.55014 22.19034,-4.82225 22.80328,-5.04912 0.69187,-0.2561 1.61138,-0.95626 2.42511,-1.84662 2.77835,-3.03996 3.12422,-7.74493 0.75409,-10.25801 -0.8851,-0.93847 -2.51764,-1.57856 -3.48375,-1.36591 -11.26018,2.47849 -18.45216,3.8692 -19.49534,3.76981 -4.08223,-0.38893 -5.48294,-5.83118 -2.64878,-10.29134 1.4553,-2.29022 2.47022,-2.74936 9.37226,-4.23992 4.15221,-0.89671 6.50244,-1.53486 7.25667,-1.9704 2.02131,-1.16723 3.52634,-3.7808 3.71609,-6.4532 0.22582,-3.18061 -0.90524,-5.33855 -3.27191,-6.24239 l -1.19376,-0.4559 -14.60903,3.12524 c -15.94815,3.41172 -15.85416,3.40119 -17.495388,1.96017 -1.31182,-1.15179 -1.82923,-2.71571 -1.67581,-5.06527 0.18062,-2.76605 1.57474,-5.187497 3.766558,-6.542117 0.59084,-0.36516 5.4568,-1.52507 14.9966,-3.57476 7.76708,-1.66882 17.27712,-3.756815 21.13342,-4.639985 17.672668,-4.04744 28.310578,-5.84015 34.660408,-5.84099 10.40714,-0.001 17.59493,3.73244 21.18352,11.004125 4.06406,8.235157 2.92519,21.953387 -2.62835,31.659707 -3.07963,5.38249 -8.76526,11.28649 -14.77321,15.34062 -4.74607,3.20261 -11.2076,5.76892 -18.73093,7.43932 l -3.96874,0.88117 -0.0682,15.47512 -0.0682,15.47511 -4.826562,1.02713 c -2.654586,0.56492 -6.374346,1.35196 -8.266116,1.74897 -1.89177,0.39702 -7.67746,1.62765 -12.85707,2.73475 -8.98274,1.91998 -11.35676,2.25291 -12.54294,1.75904 z m 44.395048,-57.16401 c 5.5517,-1.22344 10.10382,-2.5868 12.75495,-3.82012 6.43399,-2.99315 9.87494,-8.47875 9.96515,-15.88659 0.0414,-3.40159 -0.46619,-5.21426 -1.98202,-7.07776 -2.07874,-2.55551 -6.12366,-3.92236 -10.36438,-3.5023 -1.78236,0.17655 -10.13569,1.73347 -13.68448,2.55056 l -2.32281,0.53482 v 14.1315 c 0,12.55753 0.0455,14.13151 0.40808,14.13151 0.22444,0 2.57593,-0.47773 5.22551,-1.06162 z"
         id="path8" /><path
         style="fill:#24bef6;fill-opacity:1"
         d="m 64.669322,188.79569 c -0.29104,-0.12118 -0.85027,-0.56012 -1.24273,-0.97542 -2.79588,-2.95858 -1.581,-9.08992 2.24144,-11.31229 0.83077,-0.48301 3.87066,-1.23638 11.83359,-2.9327 11.42765,-2.43441 11.93019,-2.60176 13.33211,-4.43978 2.83129,-3.71201 2.48521,-8.83928 -0.7289,-10.79915 -0.45609,-0.27811 -1.3055,-0.50704 -1.88759,-0.50874 -0.58208,-0.002 -10.89924,2.10375 -22.92702,4.67877 -24.359608,5.21512 -23.008368,5.04098 -24.810818,3.19739 -2.16831,-2.2178 -1.98717,-6.51822 0.40677,-9.65684 1.49939,-1.9658 1.06883,-1.84513 24.319298,-6.81559 11.92887,-2.55014 22.19034,-4.82225 22.80328,-5.04912 0.69187,-0.2561 1.61138,-0.95626 2.42511,-1.84662 2.77835,-3.03996 3.12422,-7.74493 0.75409,-10.25801 -0.8851,-0.93847 -2.51764,-1.57856 -3.48375,-1.36591 -11.26018,2.47849 -18.45216,3.8692 -19.49534,3.76981 -4.08223,-0.38893 -5.48294,-5.83118 -2.64878,-10.29134 1.4553,-2.29022 2.47022,-2.74936 9.37226,-4.23992 4.15221,-0.89671 6.50244,-1.53486 7.25667,-1.9704 2.02131,-1.16723 3.52634,-3.7808 3.71609,-6.4532 0.22582,-3.18061 -0.90524,-5.33855 -3.27191,-6.24239 l -1.19376,-0.4559 -14.60903,3.12524 c -15.94815,3.41172 -15.85416,3.40119 -17.495388,1.96017 -1.31182,-1.15179 -1.82923,-2.71571 -1.67581,-5.06527 0.18062,-2.76605 1.57474,-5.187497 3.766558,-6.542117 0.59084,-0.36516 5.4568,-1.52507 14.9966,-3.57476 7.76708,-1.66882 17.27712,-3.756815 21.13342,-4.639985 17.672668,-4.04744 28.310578,-5.84015 34.660408,-5.84099 10.40714,-0.001 17.59493,3.73244 21.18352,11.004125 4.06406,8.235157 2.92519,21.953387 -2.62835,31.659707 -3.07963,5.38249 -8.76526,11.28649 -14.77321,15.34062 -4.74607,3.20261 -11.2076,5.76892 -18.73093,7.43932 l -3.96874,0.88117 -0.0682,15.47512 -0.0682,15.47511 -4.826562,1.02713 c -2.654586,0.56492 -6.374346,1.35196 -8.266116,1.74897 -1.89177,0.39702 -7.67746,1.62765 -12.85707,2.73475 -8.98274,1.91998 -11.35676,2.25291 -12.54294,1.75904 z m 44.395048,-57.16401 c 5.5517,-1.22344 10.10382,-2.5868 12.75495,-3.82012 6.43399,-2.99315 9.87494,-8.47875 9.96515,-15.88659 0.0414,-3.40159 -0.46619,-5.21426 -1.98202,-7.07776 -2.07874,-2.55551 -6.12366,-3.92236 -10.36438,-3.5023 -1.78236,0.17655 -10.13569,1.73347 -13.68448,2.55056 l -2.32281,0.53482 v 14.1315 c 0,12.55753 0.0455,14.13151 0.40808,14.13151 0.22444,0 2.57593,-0.47773 5.22551,-1.06162 z"
         id="path7" /><path
         style="fill:#08759e;fill-opacity:1"
         d="m 193.60709,191.11331 c -0.29104,-0.12118 -0.85027,-0.56012 -1.24273,-0.97542 -2.79588,-2.95858 -1.581,-9.08992 2.24144,-11.31229 0.83077,-0.48301 3.87066,-1.23638 11.83359,-2.9327 11.42765,-2.43441 11.93019,-2.60176 13.33211,-4.43978 2.83129,-3.71201 2.48521,-8.83928 -0.7289,-10.79915 -0.45609,-0.27811 -1.3055,-0.50704 -1.88759,-0.50874 -0.58208,-0.002 -10.89924,2.10375 -22.92702,4.67877 -24.35961,5.21512 -23.00837,5.04098 -24.81082,3.19739 -2.16831,-2.2178 -1.98717,-6.51822 0.40677,-9.65684 1.49939,-1.9658 1.06883,-1.84513 24.3193,-6.81559 11.92887,-2.55014 22.19034,-4.82225 22.80328,-5.04912 0.69187,-0.2561 1.61138,-0.95626 2.42511,-1.84662 2.77835,-3.03996 3.12422,-7.74493 0.75409,-10.25801 -0.8851,-0.93847 -2.51764,-1.57856 -3.48375,-1.36591 -11.26018,2.47849 -18.45216,3.8692 -19.49534,3.76981 -4.08223,-0.38893 -5.48294,-5.83118 -2.64878,-10.29134 1.4553,-2.29022 2.47022,-2.74936 9.37226,-4.23992 4.15221,-0.89671 6.50244,-1.53486 7.25667,-1.9704 2.02131,-1.16723 3.52634,-3.7808 3.71609,-6.4532 0.22582,-3.18061 -0.90524,-5.33855 -3.27191,-6.24239 l -1.19376,-0.4559 -14.60903,3.12524 c -15.94815,3.41172 -15.85416,3.40119 -17.49539,1.96017 -1.31182,-1.15179 -1.82923,-2.71571 -1.67581,-5.06527 0.18062,-2.76605 1.57474,-5.18751 3.76656,-6.54213 0.59084,-0.36516 5.4568,-1.525065 14.9966,-3.574755 7.76708,-1.66882 17.27712,-3.75681 21.13342,-4.63998 17.67268,-4.047447 28.31058,-5.840157 34.66041,-5.840997 10.40714,-10e-4 17.59493,3.732444 21.18352,11.004127 4.06406,8.235165 2.92519,21.953395 -2.62835,31.659715 -3.07963,5.38249 -8.76526,11.28649 -14.77321,15.34062 -4.74607,3.20261 -11.2076,5.76892 -18.73092,7.43932 l -3.96874,0.88117 -0.0682,15.47512 -0.0682,15.47511 -4.82656,1.02713 c -2.6546,0.56492 -6.37436,1.35196 -8.26613,1.74897 -1.89177,0.39702 -7.67746,1.62765 -12.85707,2.73475 -8.98274,1.91998 -11.35676,2.25291 -12.54294,1.75904 z m 44.39506,-57.16401 c 5.55169,-1.22344 10.10381,-2.5868 12.75494,-3.82012 6.43399,-2.99315 9.87494,-8.47875 9.96515,-15.88659 0.0414,-3.40159 -0.46619,-5.21426 -1.98202,-7.07776 -2.07874,-2.55551 -6.12366,-3.92237 -10.36438,-3.50231 -1.78236,0.17655 -10.13568,1.73348 -13.68447,2.55057 l -2.32281,0.53482 v 14.1315 c 0,12.55753 0.0455,14.13151 0.40808,14.13151 0.22444,0 2.57593,-0.47773 5.22551,-1.06162 z"
         id="path11" /><path
         style="fill:#24bef6;fill-opacity:1"
         d="m 189.30408,187.9491 c -0.29104,-0.12118 -0.85027,-0.56012 -1.24273,-0.97542 -2.79588,-2.95858 -1.581,-9.08992 2.24144,-11.31229 0.83077,-0.48301 3.87066,-1.23638 11.83359,-2.9327 11.42765,-2.43441 11.93019,-2.60176 13.33211,-4.43978 2.83129,-3.71201 2.48521,-8.83928 -0.7289,-10.79915 -0.45609,-0.27811 -1.3055,-0.50704 -1.88759,-0.50874 -0.58208,-0.002 -10.89924,2.10375 -22.92702,4.67877 -24.35961,5.21512 -23.00837,5.04098 -24.81082,3.19739 -2.16831,-2.2178 -1.98717,-6.51822 0.40677,-9.65684 1.49939,-1.9658 1.06883,-1.84513 24.3193,-6.81559 11.92887,-2.55014 22.19034,-4.82225 22.80328,-5.04912 0.69187,-0.2561 1.61138,-0.95626 2.42511,-1.84662 2.77835,-3.03996 3.12422,-7.74493 0.75409,-10.25801 -0.8851,-0.93847 -2.51764,-1.57856 -3.48375,-1.36591 -11.26018,2.47849 -18.45216,3.8692 -19.49534,3.76981 -4.08223,-0.38893 -5.48294,-5.83118 -2.64878,-10.29134 1.4553,-2.29022 2.47022,-2.74936 9.37226,-4.23992 4.15221,-0.89671 6.50244,-1.53486 7.25667,-1.9704 2.02131,-1.16723 3.52634,-3.7808 3.71609,-6.4532 0.22582,-3.18061 -0.90524,-5.33855 -3.27191,-6.24239 l -1.19376,-0.45591 -14.60903,3.12525 c -15.94815,3.41172 -15.85416,3.40119 -17.49539,1.96017 -1.31182,-1.15179 -1.82923,-2.71571 -1.67581,-5.06528 0.18062,-2.76605 1.57474,-5.187495 3.76656,-6.542115 0.59084,-0.36516 5.4568,-1.52507 14.9966,-3.57476 7.76708,-1.66882 17.27712,-3.756815 21.13342,-4.639985 17.67267,-4.04744 28.31058,-5.84015 34.66041,-5.84099 10.40714,-0.001 17.59493,3.73244 21.18352,11.004125 4.06406,8.235155 2.92519,21.953395 -2.62835,31.659715 -3.07963,5.38249 -8.76526,11.28649 -14.77321,15.34062 -4.74607,3.20261 -11.2076,5.76892 -18.73093,7.43932 l -3.96874,0.88117 -0.0682,15.47512 -0.0682,15.47511 -4.82656,1.02713 c -2.65459,0.56492 -6.37435,1.35196 -8.26612,1.74897 -1.89177,0.39702 -7.67746,1.62765 -12.85707,2.73475 -8.98274,1.91998 -11.35676,2.25291 -12.54294,1.75904 z m 44.39505,-57.16401 c 5.5517,-1.22344 10.10382,-2.5868 12.75495,-3.82012 6.43399,-2.99315 9.87494,-8.47875 9.96515,-15.88659 0.0414,-3.40159 -0.46619,-5.21426 -1.98202,-7.07777 -2.07874,-2.55551 -6.12366,-3.92236 -10.36438,-3.5023 -1.78236,0.17655 -10.13569,1.73347 -13.68448,2.55056 l -2.32281,0.53482 v 14.13151 c 0,12.55753 0.0455,14.13151 0.40808,14.13151 0.22444,0 2.57593,-0.47773 5.22551,-1.06162 z"
         id="path13" /><g
         id="g20"><path
           style="fill:#08759e;fill-opacity:1"
           d="m -172.05558,194.29152 c -0.29104,-0.12118 -0.85027,-0.56012 -1.24273,-0.97542 -2.79588,-2.95858 -1.581,-9.08992 2.24144,-11.31229 0.83077,-0.48301 3.87066,-1.23638 11.83359,-2.9327 11.42765,-2.43441 11.93019,-2.60176 13.33211,-4.43978 2.83129,-3.71201 2.48521,-8.83928 -0.7289,-10.79915 -0.45609,-0.27811 -1.3055,-0.50704 -1.88759,-0.50874 -0.58208,-0.002 -10.89924,2.10375 -22.92702,4.67877 -24.35961,5.21512 -23.00837,5.04098 -24.81082,3.19739 -2.16831,-2.2178 -1.98717,-6.51822 0.40677,-9.65684 1.49939,-1.9658 1.06883,-1.84513 24.3193,-6.81559 11.92887,-2.55014 22.19034,-4.82225 22.80328,-5.04912 0.69187,-0.2561 1.61138,-0.95626 2.42511,-1.84662 2.77835,-3.03996 3.12422,-7.74493 0.75409,-10.25801 -0.8851,-0.93847 -2.51764,-1.57856 -3.48375,-1.36591 -11.26018,2.47849 -18.45216,3.8692 -19.49534,3.76981 -4.08223,-0.38893 -5.48294,-5.83118 -2.64878,-10.29134 1.4553,-2.29022 2.47022,-2.74936 9.37226,-4.23992 4.15221,-0.89671 6.50244,-1.53486 7.25667,-1.9704 2.02131,-1.16723 3.52634,-3.7808 3.71609,-6.4532 0.22582,-3.18061 -0.90524,-5.33855 -3.27191,-6.24239 l -1.19376,-0.4559 -14.60903,3.12524 c -15.94815,3.41172 -15.85416,3.40119 -17.49539,1.96017 -1.31182,-1.15179 -1.82923,-2.71571 -1.67581,-5.06527 0.18062,-2.76605 1.57474,-5.1875 3.76656,-6.54212 0.59084,-0.36516 5.4568,-1.52506 14.9966,-3.57475 7.76708,-1.668821 17.27712,-3.756811 21.13342,-4.639983 17.67268,-4.047447 28.31058,-5.840157 34.66041,-5.840997 10.40714,-0.001 17.594936,3.732444 21.183526,11.00413 4.06406,8.23515 2.92519,21.95338 -2.62835,31.6597 -3.07963,5.38249 -8.765266,11.28649 -14.773216,15.34062 -4.74607,3.20261 -11.2076,5.76892 -18.73092,7.43932 l -3.96874,0.88117 -0.0682,15.47512 -0.0682,15.47511 -4.82656,1.02713 c -2.6546,0.56492 -6.37436,1.35196 -8.26613,1.74897 -1.89177,0.39702 -7.67746,1.62765 -12.85707,2.73475 -8.98274,1.91998 -11.35676,2.25291 -12.54294,1.75904 z m 44.39506,-57.16401 c 5.55169,-1.22344 10.10381,-2.5868 12.75494,-3.82012 6.43399,-2.99315 9.87494,-8.47875 9.96515,-15.88659 0.0414,-3.40159 -0.46619,-5.21426 -1.98202,-7.07776 -2.07874,-2.55551 -6.12366,-3.92236 -10.36438,-3.5023 -1.78236,0.17655 -10.13568,1.73347 -13.68447,2.55056 l -2.32281,0.53482 v 14.1315 c 0,12.55753 0.0455,14.13151 0.40808,14.13151 0.22444,0 2.57593,-0.47773 5.22551,-1.06162 z"
           id="path14" /><path
           style="fill:#9bcde0;fill-opacity:1"
           d="m -176.35859,191.12731 c -0.29104,-0.12118 -0.85027,-0.56012 -1.24273,-0.97542 -2.79588,-2.95858 -1.581,-9.08992 2.24144,-11.31229 0.83077,-0.48301 3.87066,-1.23638 11.83359,-2.9327 11.42765,-2.43441 11.93019,-2.60176 13.33211,-4.43978 2.83129,-3.71201 2.48521,-8.83928 -0.7289,-10.79915 -0.45609,-0.27811 -1.3055,-0.50704 -1.88759,-0.50874 -0.58208,-0.002 -10.89924,2.10375 -22.92702,4.67877 -24.3596,5.21512 -23.00836,5.04098 -24.81081,3.19739 -2.16831,-2.2178 -1.98717,-6.51822 0.40677,-9.65684 1.49939,-1.9658 1.06883,-1.84513 24.31929,-6.81559 11.92887,-2.55014 22.19034,-4.82225 22.80328,-5.04912 0.69187,-0.2561 1.61138,-0.95626 2.42511,-1.84662 2.77835,-3.03996 3.12422,-7.74493 0.75409,-10.25801 -0.8851,-0.93847 -2.51764,-1.57856 -3.48375,-1.36591 -11.26018,2.47849 -18.45216,3.8692 -19.49534,3.76981 -4.08223,-0.38893 -5.48294,-5.83118 -2.64878,-10.29134 1.4553,-2.29022 2.47022,-2.74936 9.37226,-4.23992 4.15221,-0.89671 6.50244,-1.53486 7.25667,-1.9704 2.02131,-1.16723 3.52634,-3.7808 3.71609,-6.4532 0.22582,-3.18061 -0.90524,-5.33855 -3.27191,-6.24239 l -1.19376,-0.4559 -14.60903,3.12524 c -15.94815,3.41172 -15.85416,3.40119 -17.49538,1.96017 -1.31182,-1.15179 -1.82923,-2.71571 -1.67581,-5.06527 0.18062,-2.76605 1.57474,-5.18749 3.76655,-6.54211 0.59084,-0.36516 5.4568,-1.525071 14.9966,-3.574761 7.76708,-1.668822 17.27712,-3.756817 21.13342,-4.639987 17.67267,-4.04744 28.31058,-5.84015 34.66041,-5.84099 10.40714,-10e-4 17.59494,3.73244 21.183526,11.004127 4.06406,8.235151 2.92519,21.953381 -2.628346,31.659701 -3.07964,5.38249 -8.76527,11.28649 -14.77322,15.34062 -4.74607,3.20261 -11.2076,5.76892 -18.73093,7.43932 l -3.96874,0.88117 -0.0682,15.47512 -0.0682,15.47511 -4.82656,1.02713 c -2.65459,0.56492 -6.37435,1.35196 -8.26612,1.74897 -1.89177,0.39702 -7.67746,1.62765 -12.85707,2.73475 -8.98274,1.91998 -11.35676,2.25291 -12.54294,1.75904 z m 44.39505,-57.16401 c 5.5517,-1.22344 10.10382,-2.5868 12.75495,-3.82012 6.43399,-2.99315 9.87494,-8.47875 9.96515,-15.88659 0.0414,-3.40159 -0.46619,-5.21426 -1.98202,-7.07776 -2.07874,-2.55551 -6.12366,-3.92236 -10.36438,-3.5023 -1.78236,0.17655 -10.13569,1.73347 -13.68448,2.55056 l -2.32281,0.53482 v 14.1315 c 0,12.55753 0.0455,14.13151 0.40808,14.13151 0.22444,0 2.57593,-0.47773 5.22551,-1.06162 z"
           id="path15" /></g><path
         style="mix-blend-mode:normal;fill:#9bcde0;fill-opacity:1;filter:url(#filter16)"
         d="m -59.498395,191.37435 c -0.29104,-0.12118 -0.85027,-0.56012 -1.24273,-0.97542 -2.79588,-2.95858 -1.581,-9.08992 2.24144,-11.31229 0.83077,-0.48301 3.87066,-1.23638 11.83359,-2.9327 11.42765,-2.43441 11.93019,-2.60176 13.33211,-4.43978 2.83129,-3.71201 2.48521,-8.83928 -0.7289,-10.79915 -0.45609,-0.27811 -1.3055,-0.50704 -1.88759,-0.50874 -0.58208,-0.002 -10.89924,2.10375 -22.92702,4.67877 -24.359608,5.21512 -23.008368,5.04098 -24.810818,3.19739 -2.16831,-2.2178 -1.98717,-6.51822 0.40677,-9.65684 1.49939,-1.9658 1.06883,-1.84513 24.319298,-6.81559 11.92887,-2.55014 22.19034,-4.82225 22.80328,-5.04912 0.69187,-0.2561 1.61138,-0.95626 2.42511,-1.84662 2.77835,-3.03996 3.12422,-7.74493 0.75409,-10.25801 -0.8851,-0.93847 -2.51764,-1.57856 -3.48375,-1.36591 -11.26018,2.47849 -18.45216,3.8692 -19.49534,3.76981 -4.08223,-0.38893 -5.48294,-5.83118 -2.64878,-10.29134 1.4553,-2.29022 2.47022,-2.74936 9.37226,-4.23992 4.15221,-0.89671 6.50244,-1.53486 7.25667,-1.9704 2.02131,-1.16723 3.52634,-3.7808 3.71609,-6.4532 0.22582,-3.18061 -0.90524,-5.33855 -3.27191,-6.24239 l -1.19376,-0.4559 -14.60903,3.12524 c -15.94815,3.41172 -15.85416,3.40119 -17.495388,1.96017 -1.31182,-1.15179 -1.82923,-2.71571 -1.67581,-5.06527 0.18062,-2.76605 1.57474,-5.18749 3.766558,-6.54211 0.59084,-0.36516 5.4568,-1.525071 14.9966,-3.574761 7.76708,-1.668822 17.27712,-3.756817 21.13342,-4.639987 17.672668,-4.04744 28.3105777,-5.84015 34.6604077,-5.84099 10.40714,-10e-4 17.5949303,3.73244 21.1835203,11.004127 4.06406,8.235151 2.92519,21.953381 -2.62835,31.659701 -3.07963,5.38249 -8.7652603,11.28649 -14.7732104,15.34062 -4.7460699,3.20261 -11.2075997,5.76892 -18.7309296,7.43932 l -3.96874,0.88117 -0.0682,15.47512 -0.0682,15.47511 -4.826562,1.02713 c -2.654586,0.56492 -6.374346,1.35196 -8.266116,1.74897 -1.89177,0.39702 -7.67746,1.62765 -12.85707,2.73475 -8.98274,1.91998 -11.35676,2.25291 -12.54294,1.75904 z m 44.395048,-57.16401 c 5.5516999,-1.22344 10.1038197,-2.5868 12.7549497,-3.82012 6.43399,-2.99315 9.87494,-8.47875 9.96515,-15.88659 0.0414,-3.40159 -0.46619,-5.21426 -1.98202,-7.07776 -2.07874,-2.55551 -6.12366003,-3.92236 -10.36438,-3.5023 -1.78236,0.17655 -10.1356897,1.73347 -13.6844797,2.55056 l -2.32281,0.53482 v 14.1315 c 0,12.55753 0.0455,14.13151 0.40808,14.13151 0.22444,0 2.57593,-0.47773 5.22551,-1.06162 z"
         id="path16" /></g></g></svg>
